<?xml version="1.0" encoding="UTF-8" standalone="no"?>
<!DOCTYPE svg PUBLIC "-//W3C//DTD SVG 1.1//EN" "http://www.w3.org/Graphics/SVG/1.1/DTD/svg11.dtd">
<svg width="100%" height="100%" viewBox="0 0 20 200" version="1.1" xmlns="http://www.w3.org/2000/svg" xmlns:xlink="http://www.w3.org/1999/xlink" xml:space="preserve" xmlns:serif="http://www.serif.com/" style="fill-rule:evenodd;clip-rule:evenodd;stroke-linecap:round;stroke-linejoin:round;stroke-miterlimit:1.5;">
    <g transform="matrix(1.01898,0,0,1.01898,1.03933,-0.145466)">
        <rect x="2.928" y="4.455" width="7.072" height="190.832" style="fill:none;stroke:white;stroke-width:0.98px;"/>
    </g>
    <g transform="matrix(1.01898,0,0,1.01898,5.78712,-3.387)">
        <rect x="2.928" y="4.455" width="7.072" height="190.832" style="fill:none;stroke:white;stroke-width:0.98px;"/>
    </g>
    <g transform="matrix(1.01898,0,0,1.01898,1.03933,-2.60032)">
        <path d="M10,6.864L14.659,3.683" style="fill:none;stroke:white;stroke-width:0.98px;"/>
    </g>
    <g transform="matrix(1.01898,0,0,1.01898,1.03933,-2.60032)">
        <path d="M2.928,6.864L7.587,3.683" style="fill:none;stroke:white;stroke-width:0.98px;"/>
    </g>
    <g transform="matrix(1.01898,0,0,1.01898,1.03933,-2.60032)">
        <path d="M2.928,197.696L7.587,194.514" style="fill:none;stroke:white;stroke-width:0.98px;"/>
    </g>
    <g transform="matrix(1.01898,0,0,1.01898,1.03933,-2.60032)">
        <path d="M10,197.696L14.659,194.514" style="fill:none;stroke:white;stroke-width:0.98px;"/>
    </g>
</svg>
