<?xml version="1.0" encoding="UTF-8" standalone="no"?>
<!DOCTYPE svg PUBLIC "-//W3C//DTD SVG 1.1//EN" "http://www.w3.org/Graphics/SVG/1.1/DTD/svg11.dtd">
<svg width="100%" height="100%" viewBox="0 0 512 512" version="1.1" xmlns="http://www.w3.org/2000/svg" xmlns:xlink="http://www.w3.org/1999/xlink" xml:space="preserve" xmlns:serif="http://www.serif.com/" style="fill-rule:evenodd;clip-rule:evenodd;stroke-linejoin:round;stroke-miterlimit:2;">
    <g>
        <path d="M175.872,197.8C200.47,192.999 224.472,186.4 247.27,179.2C216.972,123.699 179.472,73.599 135.371,31.3C70.572,66.099 21.27,128.2 5.371,202.299C53.072,211.899 111.972,210.7 175.872,197.8Z" style="fill:white;fill-rule:nonzero;"/>
        <path d="M418.571,60.099L414.371,76.599C407.772,102.999 351.972,140.799 278.772,168.1L275.471,169.299C245.771,113.199 208.271,62.199 164.472,18.1C192.672,7 223.571,0 255.671,0C312.97,0 366.371,20.2 408.971,52.299C412.27,54.699 415.572,57.1 418.571,60.099Z" style="fill:white;fill-rule:nonzero;"/>
        <path d="M287.171,268.299C279.371,247 270.671,226.3 261.071,206.199C235.872,214.6 209.172,221.8 181.871,227.199C152.171,233.199 113.472,238.599 72.672,238.599C49.271,238.599 24.271,236.799 0.572,232.298C-0.029,240.098 0.671,247.899 0.671,255.999C0.671,334.899 36.671,405.398 92.771,452.198C93.071,450.398 93.372,448.598 93.67,446.798C105.071,377.8 184.872,304.9 287.171,268.299Z" style="fill:white;fill-rule:nonzero;"/>
        <path d="M297.071,296.499C317.471,360.699 328.871,430.399 330.07,500.9C306.671,508.1 281.47,512 255.671,512C207.371,512 162.071,497.5 123.67,474.099C122.17,466.899 122.17,459.399 123.372,451.599C132.672,394.9 207.071,329.2 297.071,296.499Z" style="fill:white;fill-rule:nonzero;"/>
        <path d="M508.97,292.299C496.371,380.201 438.071,453.699 359.471,488.8C357.371,419.2 345.37,351.399 325.271,287.499C392.471,268.9 456.172,271 508.97,292.299Z" style="fill:white;fill-rule:nonzero;"/>
        <path d="M511.671,256L511.671,261.4C454.372,240.099 386.471,239.2 315.671,259.3C307.871,237.701 298.871,216.701 289.271,196.301C338.582,177.786 430.608,135.174 443.471,83.801C485.172,129.099 511.671,189.699 511.671,256Z" style="fill:white;fill-rule:nonzero;"/>
    </g>
</svg>
