<?xml version="1.0" encoding="UTF-8" standalone="no"?>
<!DOCTYPE svg PUBLIC "-//W3C//DTD SVG 1.1//EN" "http://www.w3.org/Graphics/SVG/1.1/DTD/svg11.dtd">
<svg width="100%" height="100%" viewBox="0 0 512 512" version="1.1" xmlns="http://www.w3.org/2000/svg" xmlns:xlink="http://www.w3.org/1999/xlink" xml:space="preserve" xmlns:serif="http://www.serif.com/" style="fill-rule:evenodd;clip-rule:evenodd;stroke-linejoin:round;stroke-miterlimit:2;">
    <g id="XMLID_801_" transform="matrix(1.53195,0,0,1.53195,18.5471,18.5471)">
        <path id="XMLID_802_" d="M72.16,99.73L9.927,99.73C7.165,99.73 4.927,101.969 4.927,104.73L4.927,304.658C4.927,307.42 7.165,309.658 9.927,309.658L72.16,309.658C74.922,309.658 77.16,307.42 77.16,304.658L77.16,104.73C77.16,101.969 74.922,99.73 72.16,99.73Z" style="fill:white;fill-rule:nonzero;"/>
        <path id="XMLID_803_" d="M41.066,0.341C18.422,0.341 0,18.743 0,41.362C0,63.991 18.422,82.4 41.066,82.4C63.692,82.4 82.099,63.99 82.099,41.362C82.1,18.743 63.692,0.341 41.066,0.341Z" style="fill:white;fill-rule:nonzero;"/>
        <path id="XMLID_804_" d="M230.454,94.761C205.459,94.761 186.982,105.506 175.775,117.715L175.775,104.73C175.775,101.969 173.537,99.73 170.775,99.73L111.176,99.73C108.414,99.73 106.176,101.969 106.176,104.73L106.176,304.658C106.176,307.42 108.414,309.658 111.176,309.658L173.273,309.658C176.035,309.658 178.273,307.42 178.273,304.658L178.273,205.74C178.273,172.407 187.327,159.421 210.563,159.421C235.869,159.421 237.88,180.239 237.88,207.455L237.88,304.659C237.88,307.421 240.118,309.659 242.88,309.659L305,309.659C307.762,309.659 310,307.421 310,304.659L310,194.995C310,145.43 300.549,94.761 230.454,94.761Z" style="fill:white;fill-rule:nonzero;"/>
    </g>
</svg>
