<?xml version="1.0" encoding="UTF-8" standalone="no"?>
<!DOCTYPE svg PUBLIC "-//W3C//DTD SVG 1.1//EN" "http://www.w3.org/Graphics/SVG/1.1/DTD/svg11.dtd">
<svg width="100%" height="100%" viewBox="0 0 1000 1000" version="1.1" xmlns="http://www.w3.org/2000/svg" xmlns:xlink="http://www.w3.org/1999/xlink" xml:space="preserve" xmlns:serif="http://www.serif.com/" style="fill-rule:evenodd;clip-rule:evenodd;stroke-linecap:round;stroke-linejoin:round;stroke-miterlimit:1.5;">
    <g transform="matrix(1,0,0,1,-29.9652,4.49879)">
        <g transform="matrix(0.743845,0,0,0.743845,115.326,229.295)">
            <rect x="87.518" y="59.228" width="725.872" height="725.872" style="fill:none;stroke:white;stroke-width:36.41px;"/>
        </g>
        <g transform="matrix(0.743845,0,0,0.743845,274.469,133.659)">
            <rect x="87.518" y="59.228" width="725.872" height="725.872" style="fill:none;stroke:white;stroke-width:36.41px;"/>
        </g>
        <path d="M180.426,273.351L339.568,177.715" style="fill:none;stroke:white;stroke-width:27.08px;"/>
        <g transform="matrix(1,0,0,1,539.936,0)">
            <path d="M180.426,273.351L339.568,177.715" style="fill:none;stroke:white;stroke-width:27.08px;"/>
        </g>
        <g transform="matrix(1,0,0,1,539.936,539.936)">
            <path d="M180.426,273.351L339.568,177.715" style="fill:none;stroke:white;stroke-width:27.08px;"/>
        </g>
        <g transform="matrix(1,0,0,1,0,539.936)">
            <path d="M180.426,273.351L339.568,177.715" style="fill:none;stroke:white;stroke-width:27.08px;"/>
        </g>
    </g>
</svg>
