<?xml version="1.0" encoding="UTF-8" standalone="no"?>
<!DOCTYPE svg PUBLIC "-//W3C//DTD SVG 1.1//EN" "http://www.w3.org/Graphics/SVG/1.1/DTD/svg11.dtd">
<svg width="100%" height="100%" viewBox="0 0 2000 2000" version="1.1" xmlns="http://www.w3.org/2000/svg" xmlns:xlink="http://www.w3.org/1999/xlink" xml:space="preserve" xmlns:serif="http://www.serif.com/" style="fill-rule:evenodd;clip-rule:evenodd;stroke-linejoin:round;stroke-miterlimit:2;">
    <g transform="matrix(3.90625,0,0,3.90625,0,2.84217e-13)">
        <path d="M459.392,151.744C480.213,136.96 497.728,118.507 512,97.259L512,97.237C492.949,105.579 472.683,111.125 451.52,113.813C473.28,100.821 489.899,80.405 497.707,55.808C477.419,67.904 455.019,76.437 431.147,81.216C411.883,60.693 384.427,48 354.475,48C296.363,48 249.579,95.168 249.579,152.981C249.579,161.301 250.283,169.301 252.011,176.917C164.757,172.651 87.531,130.837 35.648,67.115C26.603,82.837 21.269,100.821 21.269,120.171C21.269,156.523 39.979,188.736 67.904,207.403C51.029,207.083 34.496,202.176 20.48,194.475L20.48,195.627C20.48,246.635 56.853,289.003 104.576,298.773C96.021,301.12 86.72,302.229 77.056,302.229C70.336,302.229 63.552,301.845 57.195,300.437C70.784,341.995 109.397,372.565 155.264,373.568C119.552,401.493 74.197,418.325 25.109,418.325C16.512,418.325 8.256,417.941 -0,416.896C46.507,446.869 101.589,464 161.024,464C346.261,464 466.987,309.461 459.392,151.744Z" style="fill:white;fill-rule:nonzero;"/>
    </g>
</svg>
